<svg xmlns="http://www.w3.org/2000/svg" xmlns:xlink="http://www.w3.org/1999/xlink" version="1.1" x="0px" y="0px" viewBox="0 0 100 100" enable-background="new 0 0 100 100" xml:space="preserve"><circle cx="42.656" cy="12.5" r="7.5"/><circle cx="66.763" cy="12.5" r="7.5"/><path d="M87.092,33.348l-5-8.66c-1.384-2.396-3.993-3.638-6.579-3.403V21.25H57.388l0.003,0.005c-0.001,0-0.002,0-0.003,0  L52.5,21.25h-0.469H24.119L9.688,12.918c-1.495-0.863-3.405-0.352-4.27,1.145c-0.862,1.495-0.351,3.405,1.145,4.269l15.155,8.75  c0.052,0.03,0.107,0.045,0.16,0.072c0.101,0.051,0.201,0.099,0.308,0.139c0.097,0.036,0.194,0.064,0.293,0.091  c0.095,0.025,0.188,0.048,0.286,0.065c0.116,0.019,0.231,0.029,0.348,0.035c0.057,0.003,0.11,0.017,0.168,0.017h10.001  c0.316,0,0.568,0.241,0.608,0.547h0.016V91.25c0,2.071,1.679,3.75,3.75,3.75s3.75-1.679,3.75-3.75v-30c0-0.69,0.56-1.25,1.25-1.25  s1.25,0.56,1.25,1.25v30c0,2.071,1.679,3.75,3.75,3.75s3.75-1.679,3.75-3.75v-60v-0.625c0-0.345,0.28-0.625,0.625-0.625l5.356,0.01  c0.106,0,0.214,0.017,0.313,0.074c0.2,0.115,0.302,0.326,0.303,0.542h0.01V91.25c0,2.071,1.679,3.75,3.75,3.75s3.75-1.679,3.75-3.75  v-30c0-0.69,0.56-1.25,1.25-1.25s1.25,0.56,1.25,1.25v30c0,2.071,1.679,3.75,3.75,3.75s3.75-1.679,3.75-3.75V53.175  c1.122,0.043,2.229-0.507,2.829-1.547l8.75-15.155c0.115-0.203,0.214-0.443,0.28-0.667C87.608,35.004,87.521,34.073,87.092,33.348z   M75.513,44.027V28.75v-0.625h0.01c0.001-0.216,0.103-0.426,0.303-0.542c0.299-0.172,0.682-0.07,0.854,0.229l4.098,7.098  L75.513,44.027z"/></svg>