<svg xmlns="http://www.w3.org/2000/svg" data-name="Слой 3" viewBox="0 0 118.35061 134.5" x="0px" y="0px"><title>22</title><path d="M165.373,109.53586a13.407,13.407,0,1,0-13.40657-13.40657A13.42188,13.42188,0,0,0,165.373,109.53586Zm0-22.95592a9.54888,9.54888,0,1,1-9.54841,9.54935A9.55949,9.55949,0,0,1,165.373,86.57994Z" transform="translate(-90.9497 -82.72177)"/><path d="M209.23048,126.454a6.12464,6.12464,0,0,0-6.97409-5.1392,121.5,121.5,0,0,0-13.23325,2.95768l-1.57021.41822c-2.33129.62356-4.54955,1.216-6.74049,1.73034-1.48543-1.37711-2.97275-2.81168-4.50528-4.29052-.45119-.41445-.95418-.89955-1.54195-1.48449l-.19121-.18462c-9.20836-9.09251-21.60141-11.372-28.26278-11.92773l-4.45347-.15919-.00377.00094c-3.51342-.12716-7.01931-.259-10.51483-.4606l-.47473-.02638a6.76359,6.76359,0,0,0-5.467,2.29267c-2.45374,2.77494-4.98378,5.50938-7.527,8.25889l-.90237.974c-2.86631,3.09143-5.74863,6.2017-8.60364,9.36189a6.127,6.127,0,0,0,8.59705,8.70443l1.02482-.90237c2.82581-2.4886,5.66292-4.98567,8.47931-7.527q3.38108-3.04058,6.71694-6.19134,3.12675.40974,6.25163.77521L134.762,150.41492c-.10738.33345-.20157.67349-.27881,1.01918l-.12151.55009a11.33342,11.33342,0,0,0-.29483,1.2848l-4.19726,18.51845L95.8478,176.93512a5.75786,5.75786,0,0,0,.84021,11.45111l40.96761.14035h.01318A7.91786,7.91786,0,0,0,144.788,184.14l5.51975-11.00558,12.55317,8.28338-4.08894,29.3008a5.76092,5.76092,0,0,0,11.1836,2.5809L181.028,179.27583a7.81425,7.81425,0,0,0-1.79627-7.8256l-18.88958-19.66479,6.67173-17.33068c2.30491,1.90648,4.62208,3.77717,7.07393,5.60641l.34475.25714a6.83311,6.83311,0,0,0,5.87674,1.09736c4.57687-1.249,8.93143-2.83617,12.77171-4.23589l.308-.11209c3.925-1.428,7.6325-2.77588,11.372-3.78A6.11785,6.11785,0,0,0,209.23048,126.454Zm-3.81484.57741a2.27152,2.27152,0,0,1-1.68889,2.53852c-3.86664,1.03895-7.6504,2.41512-11.65645,3.87135l-.309.113c-3.95518,1.44117-8.04507,2.93225-12.46746,4.13887a3.00043,3.00043,0,0,1-2.564-.47474l-.33532-.25055c-3.10745-2.31716-6.01992-4.72663-8.97854-7.19733l-2.06943-1.72751-9.48623,24.64669,20.58883,21.43374a3.95867,3.95867,0,0,1,.909,3.96273l-11.07152,34.01989a1.903,1.903,0,0,1-3.69427-.85245l4.42616-31.714-18.21233-12.01721-7.46672,14.88729a4.0797,4.0797,0,0,1-3.667,2.25876H137.665l-40.96384-.14034a1.90065,1.90065,0,0,1-1.89329-1.90648A1.9107,1.9107,0,0,1,96.42238,180.75l36.62717-5.54141,4.79916-21.18507a10.05859,10.05859,0,0,1,.24585-1.07192l.15165-.66784c.06123-.27033.13658-.535.2223-.79216l5.35679-31.23742-2.03553-.22418c-3.033-.33344-6.06983-.71116-9.10946-1.11525l-.91085-.12151-.66783.6311q-3.63681,3.43194-7.3179,6.75933c-2.80791,2.53286-5.63278,5.02051-8.44728,7.49875l-1.02577.90331a2.26857,2.26857,0,0,1-3.18374-3.22236c2.84465-3.14795,5.71567-6.24692,8.57256-9.328l.90237-.97584c2.563-2.77024,5.11283-5.5254,7.58635-8.323a2.90272,2.90272,0,0,1,2.36709-.99562l.46437.02637c3.54168.20346,7.09749.33721,10.66177.46909l4.30182.14788c6.04723.50582,17.43806,2.58467,25.78078,10.82284l.20252.195c.60189.6019,1.14445,1.12279,1.59563,1.5363,1.77838,1.71809,3.53132,3.40792,5.29086,5.01392l.74224.6782.97962-.21948c2.58844-.58023,5.15615-1.266,7.87364-1.99219l1.56644-.41822a118.48438,118.48438,0,0,1,12.81974-2.871,2.26731,2.26731,0,0,1,2.5809,1.90083Z" transform="translate(-90.9497 -82.72177)"/></svg>